<?xml version="1.0" encoding="utf-8"?>
<!-- Generator: Adobe Illustrator 16.0.0, SVG Export Plug-In . SVG Version: 6.00 Build 0)  -->
<!DOCTYPE svg PUBLIC "-//W3C//DTD SVG 1.1//EN" "http://www.w3.org/Graphics/SVG/1.1/DTD/svg11.dtd">
<svg version="1.1" id="Layer_1" xmlns="http://www.w3.org/2000/svg" xmlns:xlink="http://www.w3.org/1999/xlink" x="0px" y="0px"
	 width="1000px" height="333.354px" viewBox="0 0 1000 333.354" enable-background="new 0 0 1000 333.354" xml:space="preserve">
<g>
	<path fill-rule="evenodd" clip-rule="evenodd" d="M71.918,240.099h31.532v-71.297c0-6.213-0.961-11.844-2.835-16.924
		c-1.883-5.095-4.685-9.456-8.385-13.084c-3.68-3.614-8.246-6.436-13.688-8.418c-5.385-1.982-11.557-2.96-18.452-2.96
		c-11.996,0-21.442,3.37-28.337,10.103V92.944L0,104.045v136.054h31.753v-75.251c1.318-3.555,3.737-6.449,7.282-8.623
		c3.532-2.181,7.665-3.271,12.442-3.271c7.212,0,12.416,1.751,15.63,5.246c3.221,3.509,4.811,7.705,4.811,12.584V240.099z"/>
	<path fill-rule="evenodd" clip-rule="evenodd" d="M194.583,235.923c6.915-2.974,12.759-7.03,17.613-12.172
		c4.836-5.153,8.613-11.232,11.318-18.224c2.72-7.018,4.074-14.523,4.074-22.585c0-8.035-1.354-15.537-4.074-22.482
		c-2.706-6.925-6.482-12.958-11.318-18.099c-4.854-5.16-10.698-9.211-17.613-12.191c-6.895-2.98-14.534-4.46-22.918-4.46
		c-8.382,0-16.001,1.48-22.89,4.46c-6.901,2.98-12.782,7.031-17.632,12.191c-4.831,5.141-8.607,11.174-11.333,18.099
		c-2.709,6.945-4.054,14.447-4.054,22.482c0,8.062,1.345,15.567,4.054,22.585c2.726,6.991,6.502,13.07,11.333,18.224
		c4.85,5.142,10.73,9.198,17.632,12.172c6.889,2.974,14.508,4.467,22.89,4.467C180.049,240.39,187.688,238.897,194.583,235.923
		 M153.437,205.422L153.437,205.422c-4.262-5.735-6.399-13.229-6.399-22.479c0-9.237,2.138-16.694,6.399-22.376
		c4.275-5.676,10.354-8.504,18.228-8.504c7.889,0,13.958,2.828,18.237,8.504c4.275,5.683,6.406,13.139,6.406,22.376
		c0,9.251-2.131,16.744-6.406,22.479c-4.278,5.749-10.348,8.603-18.237,8.603C163.791,214.025,157.711,211.171,153.437,205.422"/>
	<path fill-rule="evenodd" clip-rule="evenodd" d="M304.197,209.4c-2.313,1.572-4.9,2.829-7.768,3.753
		c-2.871,0.912-5.712,1.388-8.484,1.388c-3.79,0-6.74-0.727-8.871-2.181c-2.131-1.44-3.208-4.03-3.208-7.717v-52.092h23.642v-25.142
		h-23.642V95.891L244.566,106.8v20.609h-14.011v25.142h14.011V208c0,9.634,2.938,17.404,8.755,23.272
		c5.832,5.867,14.243,8.827,25.245,8.827c5.752,0,10.225-0.344,13.43-0.991c3.202-0.688,5.617-1.4,7.262-2.206L304.197,209.4z"/>
	<path fill-rule="evenodd" clip-rule="evenodd" d="M304.931,230.003c6.908,3.806,14.121,6.462,21.673,7.889
		c7.536,1.493,14.541,2.207,20.926,2.207c7.566,0,14.669-0.674,21.32-1.995c6.647-1.322,12.383-3.396,17.243-6.238
		c4.83-2.827,8.659-6.554,11.441-11.18c2.809-4.612,4.203-10.295,4.203-17.034c0-8.709-2.438-15.555-7.269-20.523
		c-4.857-4.93-11.455-8.723-19.839-11.353c-3.294-0.938-7.007-1.744-11.197-2.393c-4.196-0.66-8.134-1.453-11.834-2.368
		c-3.681-0.918-6.855-2.022-9.479-3.277c-2.62-1.255-3.931-2.934-3.931-5.055c0-1.969,1.143-3.595,3.456-4.85
		c2.29-1.249,6.713-1.883,13.278-1.883c5.58,0,10.84,0.661,15.776,1.982c4.913,1.315,10.239,3.509,16.004,6.542l9.122-24.753
		c-11.015-6.476-23.824-9.7-38.427-9.7c-7.388,0-14.25,0.628-20.563,1.877c-6.327,1.236-11.745,3.271-16.258,6.026
		c-4.526,2.782-8.098,6.317-10.711,10.599c-2.64,4.302-3.951,9.409-3.951,15.363c0,5.266,1.143,9.696,3.456,13.265
		c2.29,3.567,5.577,6.581,9.839,8.999c4.272,2.458,9.432,4.533,15.508,6.251c6.089,1.718,12.815,3.37,20.207,4.942
		c5.425,1.189,9.37,2.591,11.841,4.163c2.449,1.586,3.681,3.647,3.681,6.146c0,3.171-1.722,5.774-5.171,7.823
		c-3.449,2.049-9.115,3.065-16.988,3.065c-6.902,0-13.223-0.793-18.961-2.378c-5.772-1.586-10.271-3.305-13.559-5.154
		L304.931,230.003z"/>
	<path fill-rule="evenodd" clip-rule="evenodd" d="M474.146,209.4c-2.286,1.572-4.886,2.829-7.768,3.753
		c-2.861,0.912-5.699,1.388-8.484,1.388c-3.776,0-6.727-0.727-8.878-2.181c-2.124-1.44-3.201-4.03-3.201-7.717v-52.092h23.655
		v-25.135h-23.655V95.891l-31.288,10.916v20.609h-14.025v25.135h14.025v55.461c0,9.621,2.924,17.392,8.755,23.26
		c5.825,5.867,14.243,8.827,25.245,8.827c5.738,0,10.238-0.33,13.433-0.991c3.198-0.688,5.606-1.4,7.278-2.193L474.146,209.4z"/>
	<path fill-rule="evenodd" clip-rule="evenodd" d="M545.978,206.545c-4.915,4.745-11.483,7.123-19.696,7.123
		c-5.58,0-10.397-1.295-14.405-3.872c-4.037-2.563-6.036-6.053-6.036-10.387c0-10.044,7.708-15.053,23.144-15.053
		c3.786,0,7.216,0.635,10.361,1.863c3.105,1.269,5.338,2.828,6.633,4.679V206.545z M546.229,238.408h31.519v-70.702
		c0-6.32-1.203-12.095-3.549-17.334c-2.411-5.207-5.748-9.628-10.103-13.262c-4.374-3.621-9.654-6.422-15.904-8.405
		c-6.238-1.996-13.13-2.974-20.689-2.974c-8.041,0-15.511,1.236-22.413,3.654c-6.901,2.431-12.726,5.788-17.49,10.004L501.889,159
		c3.453-2.372,6.984-4.262,10.596-5.636c3.601-1.388,7.959-2.088,13.06-2.088c6.228,0,10.985,1.084,14.289,3.258
		c3.271,2.194,5.484,5.914,6.641,11.207c-3.284-1.857-6.944-3.073-10.955-3.681c-4.024-0.582-8.016-0.872-11.95-0.872
		c-14.785,0-26.698,3.218-35.705,9.689c-9.052,6.476-13.565,16.176-13.565,29.126c0,6.198,1.163,11.775,3.449,16.731
		c2.299,4.942,5.501,9.185,9.601,12.66c4.113,3.515,8.831,6.225,14.189,8.128c5.313,1.916,11.104,2.881,17.355,2.881
		c5.732,0,11.035-0.807,15.892-2.392c4.837-1.587,8.655-3.503,11.444-5.736V238.408z"/>
	<path fill-rule="evenodd" clip-rule="evenodd" d="M663.806,132.762c-2.292-1.844-4.969-3.211-8.009-4.057
		c-3.032-0.853-6.197-1.289-9.475-1.289c-8.53,0-15.355,2.57-20.443,7.724v-5.735h-31.771v110.694h31.771v-75.052
		c0.64-3.701,2.246-6.641,4.797-8.828c2.537-2.167,6.211-3.264,10.968-3.264c2.954,0,5.379,0.331,7.275,0.998
		c1.883,0.661,3.568,1.506,5.056,2.57L663.806,132.762z"/>
	<g>
		<defs>
			<path id="SVGID_1_" d="M896.191,25.916h-0.014c-0.442,0.02-0.766,0.39-0.753,0.819l14.26,301.353
				c0.013,0.039,0.013,0.132,0.013,0.171c0.265,3.066,2.974,5.34,6.033,5.075c3.059-0.265,5.313-2.973,5.074-6.025L896.991,26.629
				c-0.033-0.409-0.37-0.713-0.786-0.713H896.191z"/>
		</defs>
		<clipPath id="SVGID_2_">
			<use xlink:href="#SVGID_1_"  overflow="visible"/>
		</clipPath>
		
			<linearGradient id="SVGID_3_" gradientUnits="userSpaceOnUse" x1="73.8018" y1="455.9683" x2="80.5676" y2="455.9683" gradientTransform="matrix(2.574 44.6713 -44.6713 2.574 21078.3145 -4440.3638)">
			<stop  offset="0" style="stop-color:#068873"/>
			<stop  offset="0.24" style="stop-color:#068873"/>
			<stop  offset="0.69" style="stop-color:#F5EB07"/>
			<stop  offset="1" style="stop-color:#F5EB07"/>
		</linearGradient>
		<polygon clip-path="url(#SVGID_2_)" fill="url(#SVGID_3_)" points="877.742,26.933 895.497,335.064 938.712,332.581 
			920.957,24.449 		"/>
	</g>
	<g>
		<defs>
			<path id="SVGID_4_" d="M893.456,35.768l0.403,252.634v0.079c0.039,1.851,1.565,3.304,3.402,3.251
				c1.844-0.04,3.298-1.56,3.271-3.396l-5.591-252.588c-0.02-0.403-0.35-0.707-0.746-0.707
				C893.793,35.041,893.456,35.364,893.456,35.768"/>
		</defs>
		<clipPath id="SVGID_5_">
			<use xlink:href="#SVGID_4_"  overflow="visible"/>
		</clipPath>
		
			<linearGradient id="SVGID_6_" gradientUnits="userSpaceOnUse" x1="72.2168" y1="454.7925" x2="78.9844" y2="454.7925" gradientTransform="matrix(0.7458 37.7056 -37.7056 0.7458 17988.834 -3025.646)">
			<stop  offset="0" style="stop-color:#068873"/>
			<stop  offset="0.24" style="stop-color:#068873"/>
			<stop  offset="0.69" style="stop-color:#F5EB07"/>
			<stop  offset="1" style="stop-color:#F5EB07"/>
		</linearGradient>
		<polygon clip-path="url(#SVGID_5_)" fill="url(#SVGID_6_)" points="888.381,35.14 893.463,291.929 905.634,291.678 
			900.553,34.896 		"/>
	</g>
	<g>
		<defs>
			<path id="SVGID_7_" d="M718.459,86.343c-0.113,0-0.199,0.066-0.231,0.171c-0.033,0.132,0.059,0.245,0.171,0.271l240.374,55.577
				l0.026,0.007c1.453,0.297,2.861-0.628,3.165-2.068c0.291-1.453-0.641-2.848-2.081-3.145L718.491,86.343H718.459z"/>
		</defs>
		<clipPath id="SVGID_8_">
			<use xlink:href="#SVGID_7_"  overflow="visible"/>
		</clipPath>
		
			<linearGradient id="SVGID_9_" gradientUnits="userSpaceOnUse" x1="86.9863" y1="457.1382" x2="93.7505" y2="457.1382" gradientTransform="matrix(36.0812 0 0 36.0812 -2420.3784 -16379.582)">
			<stop  offset="0" style="stop-color:#068873"/>
			<stop  offset="0.24" style="stop-color:#068873"/>
			<stop  offset="0.69" style="stop-color:#F5EB07"/>
			<stop  offset="1" style="stop-color:#F5EB07"/>
		</linearGradient>
		<rect x="718.194" y="86.343" clip-path="url(#SVGID_8_)" fill="url(#SVGID_9_)" width="244.061" height="56.323"/>
	</g>
	<g>
		<defs>
			<path id="SVGID_10_" d="M717.104,87.638c-0.119,0.376,0.093,0.799,0.489,0.938l268.384,88.949
				c0.205,0.079,0.469,0.158,0.693,0.212c5.723,1.453,11.537-1.996,12.998-7.692c1.453-5.731-1.996-11.533-7.712-12.993
				L717.989,87.162c-0.053-0.026-0.119-0.04-0.172-0.04C717.5,87.123,717.223,87.327,717.104,87.638"/>
		</defs>
		<clipPath id="SVGID_11_">
			<use xlink:href="#SVGID_10_"  overflow="visible"/>
		</clipPath>
		
			<linearGradient id="SVGID_12_" gradientUnits="userSpaceOnUse" x1="83.9019" y1="456.8589" x2="90.6689" y2="456.8589" gradientTransform="matrix(41.6459 11.8817 -11.8817 41.6459 2649.5859 -19930.9805)">
			<stop  offset="0" style="stop-color:#068873"/>
			<stop  offset="0.24" style="stop-color:#068873"/>
			<stop  offset="0.69" style="stop-color:#F5EB07"/>
			<stop  offset="1" style="stop-color:#F5EB07"/>
		</linearGradient>
		<polygon clip-path="url(#SVGID_11_)" fill="url(#SVGID_12_)" points="692.695,172.265 979.738,254.161 1025.411,94.054 
			738.374,12.165 		"/>
	</g>
	<g>
		<defs>
			<path id="SVGID_13_" d="M890.363,1.871L705.686,253.473c-0.118,0.158-0.086,0.396,0.079,0.516
				c0.172,0.133,0.41,0.092,0.529-0.079L897.565,7.13c0.02-0.014,0.054-0.08,0.08-0.093c1.42-2.009,0.951-4.791-1.071-6.211
				C895.808,0.277,894.916,0,894.011,0C892.61,0,891.242,0.654,890.363,1.871"/>
		</defs>
		<clipPath id="SVGID_14_">
			<use xlink:href="#SVGID_13_"  overflow="visible"/>
		</clipPath>
		
			<linearGradient id="SVGID_15_" gradientUnits="userSpaceOnUse" x1="86.3369" y1="466.2886" x2="93.102" y2="466.2886" gradientTransform="matrix(27.4902 -36.8534 36.8534 27.4902 -18850.9609 -9381.5098)">
			<stop  offset="0" style="stop-color:#068873"/>
			<stop  offset="0.24" style="stop-color:#068873"/>
			<stop  offset="0.69" style="stop-color:#F5EB07"/>
			<stop  offset="1" style="stop-color:#F5EB07"/>
		</linearGradient>
		<polygon clip-path="url(#SVGID_14_)" fill="url(#SVGID_15_)" points="829.89,346.853 1020.858,90.849 774.743,-92.738 
			583.774,163.27 		"/>
	</g>
	<g>
		<defs>
			<path id="SVGID_16_" d="M871.089,12.898L711.612,243.562c-0.039,0.079-0.013,0.158,0.061,0.211
				c0.059,0.04,0.131,0.026,0.178-0.039L875.496,15.925c0.013-0.013,0.033-0.033,0.033-0.046c0.825-1.222,0.509-2.875-0.727-3.707
				c-0.463-0.31-0.985-0.449-1.501-0.449C872.456,11.722,871.604,12.139,871.089,12.898"/>
		</defs>
		<clipPath id="SVGID_17_">
			<use xlink:href="#SVGID_16_"  overflow="visible"/>
		</clipPath>
		
			<linearGradient id="SVGID_18_" gradientUnits="userSpaceOnUse" x1="87.2427" y1="466.6597" x2="94.0061" y2="466.6597" gradientTransform="matrix(23.3978 -33.597 33.597 23.3978 -17005.3203 -7745.6724)">
			<stop  offset="0" style="stop-color:#068873"/>
			<stop  offset="0.24" style="stop-color:#068873"/>
			<stop  offset="0.69" style="stop-color:#F5EB07"/>
			<stop  offset="1" style="stop-color:#F5EB07"/>
		</linearGradient>
		<polygon clip-path="url(#SVGID_17_)" fill="url(#SVGID_18_)" points="822.535,321.083 985.196,87.525 765.393,-65.554 
			602.731,168.009 		"/>
	</g>
	<g>
		<defs>
			<path id="SVGID_19_" d="M873.045,46.32L725.562,230.504c-0.093,0.106-0.086,0.291,0.033,0.397
				c0.112,0.092,0.304,0.079,0.396-0.04L878.212,50.549c0.007-0.02,0.026-0.053,0.072-0.08c1.13-1.44,0.899-3.535-0.548-4.685
				c-0.614-0.502-1.348-0.74-2.075-0.74C874.67,45.044,873.705,45.487,873.045,46.32"/>
		</defs>
		<clipPath id="SVGID_20_">
			<use xlink:href="#SVGID_19_"  overflow="visible"/>
		</clipPath>
		
			<linearGradient id="SVGID_21_" gradientUnits="userSpaceOnUse" x1="88.8423" y1="466.4546" x2="95.6092" y2="466.4546" gradientTransform="matrix(22.2122 -27.0149 27.0149 22.2122 -13849.0176 -7729.3813)">
			<stop  offset="0" style="stop-color:#068873"/>
			<stop  offset="0.24" style="stop-color:#068873"/>
			<stop  offset="0.69" style="stop-color:#F5EB07"/>
			<stop  offset="1" style="stop-color:#F5EB07"/>
		</linearGradient>
		<polygon clip-path="url(#SVGID_20_)" fill="url(#SVGID_21_)" points="817.316,306.52 970.633,120.048 787.562,-30.474 
			634.243,155.994 		"/>
	</g>
	<g>
		<defs>
			<path id="SVGID_22_" d="M732.295,126.346c-1.395,1.189-1.579,3.29-0.39,4.711l151.058,178.185
				c0.39,0.449,1.084,0.516,1.553,0.146c0.476-0.396,0.549-1.123,0.158-1.572L737.045,126.789c0,0-0.046-0.033-0.053-0.053
				c-0.654-0.773-1.599-1.169-2.543-1.169C733.688,125.566,732.93,125.817,732.295,126.346"/>
		</defs>
		<clipPath id="SVGID_23_">
			<use xlink:href="#SVGID_22_"  overflow="visible"/>
		</clipPath>
		
			<linearGradient id="SVGID_24_" gradientUnits="userSpaceOnUse" x1="76.7817" y1="474.4429" x2="83.5479" y2="474.4429" gradientTransform="matrix(-22.5028 -26.9037 26.9037 -22.5028 -10152.0879 13051.1816)">
			<stop  offset="0" style="stop-color:#068873"/>
			<stop  offset="0.24" style="stop-color:#068873"/>
			<stop  offset="0.69" style="stop-color:#F5EB07"/>
			<stop  offset="1" style="stop-color:#F5EB07"/>
		</linearGradient>
		<polygon clip-path="url(#SVGID_23_)" fill="url(#SVGID_24_)" points="975.708,233.941 821.531,49.604 640.071,201.378 
			794.248,385.719 		"/>
	</g>
	<g>
		<defs>
			<path id="SVGID_25_" d="M713.945,80.455c-2.563,2.095-2.953,5.888-0.872,8.445l187.651,230.782
				c0.324,0.396,0.905,0.476,1.301,0.146c0.424-0.305,0.51-0.898,0.186-1.321L722.522,81.479c-0.053-0.04-0.112-0.112-0.146-0.146
				c-1.184-1.46-2.921-2.22-4.646-2.22C716.391,79.114,715.062,79.55,713.945,80.455"/>
		</defs>
		<clipPath id="SVGID_26_">
			<use xlink:href="#SVGID_25_"  overflow="visible"/>
		</clipPath>
		
			<linearGradient id="SVGID_27_" gradientUnits="userSpaceOnUse" x1="77.5762" y1="472.5151" x2="84.3398" y2="472.5151" gradientTransform="matrix(-27.7473 -35.3902 35.3902 -27.7473 -13668.0996 16177.209)">
			<stop  offset="0" style="stop-color:#068873"/>
			<stop  offset="0.24" style="stop-color:#068873"/>
			<stop  offset="0.69" style="stop-color:#F5EB07"/>
			<stop  offset="1" style="stop-color:#F5EB07"/>
		</linearGradient>
		<polygon clip-path="url(#SVGID_26_)" fill="url(#SVGID_27_)" points="1019.569,228.39 829.612,-13.889 593.949,170.877 
			783.914,413.154 		"/>
	</g>
	<g>
		<defs>
			<path id="SVGID_28_" d="M863.318,193.833L704.073,265.5c-0.093,0.053-0.132,0.146-0.093,0.251
				c0.026,0.105,0.146,0.132,0.238,0.105l160.87-67.953c0.014,0,0.033-0.014,0.047-0.014c1.129-0.528,1.638-1.836,1.129-2.946
				c-0.383-0.819-1.183-1.322-2.034-1.322C863.927,193.621,863.609,193.687,863.318,193.833"/>
		</defs>
		<clipPath id="SVGID_29_">
			<use xlink:href="#SVGID_28_"  overflow="visible"/>
		</clipPath>
		
			<linearGradient id="SVGID_30_" gradientUnits="userSpaceOnUse" x1="89.4819" y1="457.4429" x2="96.2479" y2="457.4429" gradientTransform="matrix(24.0316 0 0 24.0316 -1446.4312 -10763.3262)">
			<stop  offset="0" style="stop-color:#068873"/>
			<stop  offset="0.24" style="stop-color:#068873"/>
			<stop  offset="0.69" style="stop-color:#F5EB07"/>
			<stop  offset="1" style="stop-color:#F5EB07"/>
		</linearGradient>
		<rect x="703.941" y="193.621" clip-path="url(#SVGID_29_)" fill="url(#SVGID_30_)" width="162.832" height="72.262"/>
	</g>
	<g>
		<defs>
			<path id="SVGID_31_" d="M980.994,156.847L693.012,271.05c-0.191,0.065-0.264,0.264-0.211,0.462
				c0.06,0.185,0.264,0.317,0.476,0.238l295.72-92.283c0.277-0.08,0.575-0.198,0.853-0.291c6.178-2.458,9.185-9.422,6.74-15.597
				c-1.857-4.724-6.391-7.579-11.154-7.579C983.954,156.001,982.448,156.265,980.994,156.847"/>
		</defs>
		<clipPath id="SVGID_32_">
			<use xlink:href="#SVGID_31_"  overflow="visible"/>
		</clipPath>
		
			<linearGradient id="SVGID_33_" gradientUnits="userSpaceOnUse" x1="85.8047" y1="463.2065" x2="92.571" y2="463.2065" gradientTransform="matrix(44.9774 -15.684 15.684 44.9774 -10432.8252 -19220.2676)">
			<stop  offset="0" style="stop-color:#068873"/>
			<stop  offset="0.24" style="stop-color:#068873"/>
			<stop  offset="0.69" style="stop-color:#F5EB07"/>
			<stop  offset="1" style="stop-color:#F5EB07"/>
		</linearGradient>
		<polygon clip-path="url(#SVGID_32_)" fill="url(#SVGID_33_)" points="725.952,367.046 1035.045,259.262 965.823,60.771 
			656.735,168.551 		"/>
	</g>
</g>
</svg>
